<svg width="132" height="132" viewBox="0 0 132 132" fill="none" xmlns="http://www.w3.org/2000/svg">
<path d="M110.222 2C75.5359 3.85819 94.2698 43.46 108.766 59.9602C109.525 60.8246 110.892 60.7478 111.615 59.8527C144.555 19.0718 126.329 2 110.222 2Z" stroke="black" stroke-width="3"/>
<circle cx="110.54" cy="22.1724" r="7.14506" stroke="black" stroke-width="3"/>
<path d="M117.588 52.2692V128.817C117.588 129.46 116.989 129.936 116.362 129.791L78.845 121.11M78.845 121.11L40.1023 130.075M78.845 121.11V31.457M40.1023 130.075L2.77096 121.291C2.31925 121.185 2 120.782 2 120.318V32.6991C2 32.0608 2.58987 31.5859 3.21345 31.7222L40.1023 39.7819M40.1023 130.075V39.7819M40.1023 39.7819L78.845 31.457M78.845 31.457L93.5736 34.0185" stroke="black" stroke-width="3"/>
</svg>
